<?xml version="1.0" encoding="UTF-8" standalone="no"?>
<!-- Generator: Adobe Illustrator 19.2.1, SVG Export Plug-In . SVG Version: 6.00 Build 0)  -->

<svg
   xmlns:dc="http://purl.org/dc/elements/1.1/"
   xmlns:cc="http://creativecommons.org/ns#"
   xmlns:rdf="http://www.w3.org/1999/02/22-rdf-syntax-ns#"
   xmlns:svg="http://www.w3.org/2000/svg"
   xmlns="http://www.w3.org/2000/svg"
   xmlns:sodipodi="http://sodipodi.sourceforge.net/DTD/sodipodi-0.dtd"
   xmlns:inkscape="http://www.inkscape.org/namespaces/inkscape"
   version="1.1"
   id="Layer_1"
   x="0px"
   y="0px"
   viewBox="0 0 234.2 234.19999"
   xml:space="preserve"
   sodipodi:docname="compass4.svg"
   inkscape:version="0.92pre2 r"
   width="234.2"
   height="234.2"><metadata
     id="metadata266"><rdf:RDF><cc:Work
         rdf:about=""><dc:format>image/svg+xml</dc:format><dc:type
           rdf:resource="http://purl.org/dc/dcmitype/StillImage" /><dc:title></dc:title></cc:Work></rdf:RDF></metadata><defs
     id="defs264" /><sodipodi:namedview
     pagecolor="#ffffff"
     bordercolor="#666666"
     borderopacity="1"
     objecttolerance="10"
     gridtolerance="10"
     guidetolerance="10"
     inkscape:pageopacity="0"
     inkscape:pageshadow="2"
     inkscape:window-width="2560"
     inkscape:window-height="1571"
     id="namedview262"
     showgrid="false"
     inkscape:zoom="1.495427"
     inkscape:cx="121.54998"
     inkscape:cy="117.54998"
     inkscape:window-x="0"
     inkscape:window-y="55"
     inkscape:window-maximized="1"
     inkscape:current-layer="Layer_1"
     fit-margin-top="0"
     fit-margin-left="0"
     fit-margin-right="0"
     fit-margin-bottom="0" /><style
     type="text/css"
     id="style185">
	.st0{fill:#234088;}
	.st1{fill:url(#SVGID_1_);}
	.st2{fill:url(#SVGID_2_);}
	.st3{fill:url(#SVGID_3_);}
	.st4{fill:url(#SVGID_4_);}
	.st5{fill:url(#SVGID_5_);}
	.st6{fill:url(#SVGID_6_);}
	.st7{fill:#FFFFFF;}
	.st8{font-family:'Arial-Black';}
	.st9{font-size:20.2486px;}
</style><g
     id="g259"
     transform="translate(-176.10001,-304.3)"><circle
       class="st0"
       cx="293.20001"
       cy="421.39999"
       r="117.1"
       id="circle187"
       style="fill:#234088" /><radialGradient
       id="SVGID_1_"
       cx="293.1188"
       cy="421.4032"
       r="113.7175"
       gradientUnits="userSpaceOnUse"><stop
         offset="0"
         style="stop-color:#0090CA"
         id="stop189" /><stop
         offset="2.852240e-002"
         style="stop-color:#008CC6"
         id="stop191" /><stop
         offset="0.2435"
         style="stop-color:#006EAA"
         id="stop193" /><stop
         offset="0.412"
         style="stop-color:#005E9A"
         id="stop195" /><stop
         offset="0.5123"
         style="stop-color:#005894"
         id="stop197" /><stop
         offset="0.6149"
         style="stop-color:#005A97"
         id="stop199" /><stop
         offset="0.7233"
         style="stop-color:#00629E"
         id="stop201" /><stop
         offset="0.8344"
         style="stop-color:#0070AB"
         id="stop203" /><stop
         offset="0.9465"
         style="stop-color:#0084BE"
         id="stop205" /><stop
         offset="1"
         style="stop-color:#0090CA"
         id="stop207" /></radialGradient><circle
       class="st1"
       cx="293.10001"
       cy="421.39999"
       r="113.7"
       id="circle210"
       style="fill:url(#SVGID_1_)" /><linearGradient
       id="SVGID_2_"
       gradientUnits="userSpaceOnUse"
       x1="200.0898"
       y1="421.40329"
       x2="386.1474"
       y2="421.40329"><stop
         offset="0"
         style="stop-color:#0D4E74"
         id="stop212" /><stop
         offset="1"
         style="stop-color:#0090CA"
         id="stop214" /></linearGradient><path
       class="st2"
       d="m 293.1,514.4 c -51.3,0 -93,-41.7 -93,-93 0,-51.3 41.7,-93 93,-93 51.3,0 93,41.7 93,93 0,51.3 -41.7,93 -93,93 z m 0,-184 c -50.2,0 -91,40.8 -91,91 0,50.2 40.8,91 91,91 50.2,0 91,-40.8 91,-91 0,-50.2 -40.8,-91 -91,-91 z"
       id="path217"
       inkscape:connector-curvature="0"
       style="fill:url(#SVGID_2_)" /><linearGradient
       id="SVGID_3_"
       gradientUnits="userSpaceOnUse"
       x1="362.57001"
       y1="421.40329"
       x2="223.66721"
       y2="421.40329"><stop
         offset="0"
         style="stop-color:#0D4E74"
         id="stop219" /><stop
         offset="1"
         style="stop-color:#0090CA"
         id="stop221" /></linearGradient><path
       class="st3"
       d="m 293.1,490.9 c -38.3,0 -69.5,-31.2 -69.5,-69.5 0,-38.3 31.2,-69.5 69.5,-69.5 38.3,0 69.5,31.2 69.5,69.5 0,38.3 -31.2,69.5 -69.5,69.5 z m 0,-137.5 c -37.5,0 -68,30.5 -68,68 0,37.5 30.5,68 68,68 37.5,0 68,-30.5 68,-68 0,-37.5 -30.5,-68 -68,-68 z"
       id="path224"
       inkscape:connector-curvature="0"
       style="fill:url(#SVGID_3_)" /><linearGradient
       id="SVGID_4_"
       gradientUnits="userSpaceOnUse"
       x1="293.1188"
       y1="466.50189"
       x2="293.1188"
       y2="376.3046"><stop
         offset="0"
         style="stop-color:#0D4E74"
         id="stop226" /><stop
         offset="1"
         style="stop-color:#0090CA"
         id="stop228" /></linearGradient><path
       class="st4"
       d="m 293.1,466.5 c -24.9,0 -45.1,-20.2 -45.1,-45.1 0,-24.9 20.2,-45.1 45.1,-45.1 24.9,0 45.1,20.2 45.1,45.1 0,24.9 -20.2,45.1 -45.1,45.1 z m 0,-89.2 c -24.3,0 -44.1,19.8 -44.1,44.1 0,24.3 19.8,44.1 44.1,44.1 24.3,0 44.1,-19.8 44.1,-44.1 0,-24.3 -19.7,-44.1 -44.1,-44.1 z"
       id="path231"
       inkscape:connector-curvature="0"
       style="fill:url(#SVGID_4_)" /><linearGradient
       id="SVGID_5_"
       gradientUnits="userSpaceOnUse"
       x1="292.86911"
       y1="421.40302"
       x2="293.36911"
       y2="421.40302"><stop
         offset="0"
         style="stop-color:#0090CA"
         id="stop233" /><stop
         offset="0.5123"
         style="stop-color:#0D4E74"
         id="stop235" /><stop
         offset="1"
         style="stop-color:#0090CA"
         id="stop237" /></linearGradient><rect
       x="292.89999"
       y="307.70001"
       class="st5"
       width="0.5"
       height="227.39999"
       id="rect240"
       style="fill:url(#SVGID_5_)" /><linearGradient
       id="SVGID_6_"
       gradientUnits="userSpaceOnUse"
       x1="406.83591"
       y1="421.40329"
       x2="179.40131"
       y2="421.40329"><stop
         offset="0"
         style="stop-color:#0090CA"
         id="stop242" /><stop
         offset="0.5025"
         style="stop-color:#0D4E74"
         id="stop244" /><stop
         offset="1"
         style="stop-color:#0090CA"
         id="stop246" /></linearGradient><rect
       x="179.39999"
       y="420.89999"
       class="st6"
       width="227.39999"
       height="1"
       id="rect249"
       style="fill:url(#SVGID_6_)" /><text
       transform="translate(285.0986,329.9975)"
       class="st7 st8 st9"
       id="text251"
       style="font-size:20.24860001px;font-family:Arial-Black;fill:#ffffff">N</text>
<text
       transform="translate(388.2228,428.4745)"
       class="st7 st8 st9"
       id="text253"
       style="font-size:20.24860001px;font-family:Arial-Black;fill:#ffffff">E</text>
<text
       transform="translate(285.0988,528.5767)"
       class="st7 st8 st9"
       id="text255"
       style="font-size:20.24860001px;font-family:Arial-Black;fill:#ffffff">S</text>
<text
       transform="translate(185.5815,428.5131)"
       class="st7 st8 st9"
       id="text257"
       style="font-size:20.24860001px;font-family:Arial-Black;fill:#ffffff">W</text>
</g></svg>