<?xml version="1.0" encoding="utf-8"?>
<!-- Generator: Adobe Illustrator 19.2.1, SVG Export Plug-In . SVG Version: 6.00 Build 0)  -->
<svg version="1.1" id="Layer_1" xmlns="http://www.w3.org/2000/svg" xmlns:xlink="http://www.w3.org/1999/xlink" x="0px" y="0px"
	 viewBox="0 0 595.3 841.9" style="enable-background:new 0 0 595.3 841.9;" xml:space="preserve">
<style type="text/css">
	.st0{fill:#234088;}
	.st1{fill:url(#SVGID_1_);}
	.st2{fill:url(#SVGID_2_);}
	.st3{fill:url(#SVGID_3_);}
	.st4{fill:url(#SVGID_4_);}
	.st5{fill:url(#SVGID_5_);}
	.st6{fill:url(#SVGID_6_);}
</style>
<g>
	<circle class="st0" cx="293.2" cy="421.4" r="117.1"/>
	<radialGradient id="SVGID_1_" cx="293.1188" cy="421.4032" r="113.7175" gradientUnits="userSpaceOnUse">
		<stop  offset="0" style="stop-color:#0090CA"/>
		<stop  offset="2.852240e-002" style="stop-color:#008CC6"/>
		<stop  offset="0.2435" style="stop-color:#006EAA"/>
		<stop  offset="0.412" style="stop-color:#005E9A"/>
		<stop  offset="0.5123" style="stop-color:#005894"/>
		<stop  offset="0.6149" style="stop-color:#005A97"/>
		<stop  offset="0.7233" style="stop-color:#00629E"/>
		<stop  offset="0.8344" style="stop-color:#0070AB"/>
		<stop  offset="0.9465" style="stop-color:#0084BE"/>
		<stop  offset="1" style="stop-color:#0090CA"/>
	</radialGradient>
	<circle class="st1" cx="293.1" cy="421.4" r="113.7"/>
	<linearGradient id="SVGID_2_" gradientUnits="userSpaceOnUse" x1="200.0898" y1="421.4033" x2="386.1474" y2="421.4033">
		<stop  offset="0" style="stop-color:#0D4E74"/>
		<stop  offset="1" style="stop-color:#0090CA"/>
	</linearGradient>
	<path class="st2" d="M293.1,514.4c-51.3,0-93-41.7-93-93s41.7-93,93-93c51.3,0,93,41.7,93,93S344.4,514.4,293.1,514.4z
		 M293.1,330.4c-50.2,0-91,40.8-91,91c0,50.2,40.8,91,91,91s91-40.8,91-91C384.1,371.2,343.3,330.4,293.1,330.4z"/>
	<linearGradient id="SVGID_3_" gradientUnits="userSpaceOnUse" x1="366.1474" y1="421.4033" x2="220.0898" y2="421.4033">
		<stop  offset="0" style="stop-color:#0D4E74"/>
		<stop  offset="1" style="stop-color:#0090CA"/>
	</linearGradient>
	<path class="st3" d="M293.1,494.4c-40.3,0-73-32.8-73-73s32.8-73,73-73c40.3,0,73,32.8,73,73S333.4,494.4,293.1,494.4z
		 M293.1,349.9c-39.4,0-71.5,32.1-71.5,71.5c0,39.4,32.1,71.5,71.5,71.5c39.4,0,71.5-32.1,71.5-71.5
		C364.6,382,332.5,349.9,293.1,349.9z"/>
	<linearGradient id="SVGID_4_" gradientUnits="userSpaceOnUse" x1="293.1188" y1="466.5019" x2="293.1188" y2="376.3046">
		<stop  offset="0" style="stop-color:#0D4E74"/>
		<stop  offset="1" style="stop-color:#0090CA"/>
	</linearGradient>
	<path class="st4" d="M293.1,466.5c-24.9,0-45.1-20.2-45.1-45.1s20.2-45.1,45.1-45.1c24.9,0,45.1,20.2,45.1,45.1
		S318,466.5,293.1,466.5z M293.1,377.3c-24.3,0-44.1,19.8-44.1,44.1c0,24.3,19.8,44.1,44.1,44.1s44.1-19.8,44.1-44.1
		C337.2,397.1,317.5,377.3,293.1,377.3z"/>
	<linearGradient id="SVGID_5_" gradientUnits="userSpaceOnUse" x1="292.8691" y1="421.403" x2="293.3691" y2="421.403">
		<stop  offset="0" style="stop-color:#0D4E74"/>
		<stop  offset="1" style="stop-color:#0090CA"/>
	</linearGradient>
	<rect x="292.9" y="307.7" class="st5" width="0.5" height="227.4"/>
	<linearGradient id="SVGID_6_" gradientUnits="userSpaceOnUse" x1="406.8359" y1="421.4033" x2="179.4013" y2="421.4033">
		<stop  offset="0" style="stop-color:#0D4E74"/>
		<stop  offset="1" style="stop-color:#0090CA"/>
	</linearGradient>
	<rect x="179.4" y="420.9" class="st6" width="227.4" height="1"/>
</g>
</svg>
